<svg xmlns="http://www.w3.org/2000/svg" viewBox="0 -0.5 9 8" shape-rendering="crispEdges">
<metadata>Made with Pixels to Svg https://codepen.io/shshaw/pen/XbxvNj</metadata>
<path stroke="#000000" d="M4 0h2M3 1h1M6 1h1M3 2h1M6 2h1M1 3h6M1 4h1M4 4h2M7 4h1M2 5h1M3 6h5" />
<path stroke="#d40001" d="M4 1h1M5 2h1" />
<path stroke="#ffd6c4" d="M5 1h1" />
<path stroke="#9f0000" d="M4 2h1" />
<path stroke="#505050" d="M2 4h1M3 5h4" />
<path stroke="#818181" d="M3 4h1" />
<path stroke="#a8a6a6" d="M6 4h1" />
<path stroke="#060606" d="M1 5h1M2 6h1" />
<path stroke="#0f0000" d="M7 5h1" />
</svg>