<svg xmlns="http://www.w3.org/2000/svg" viewBox="0 -0.5 9 8" shape-rendering="crispEdges">
<metadata>Made with Pixels to Svg https://codepen.io/shshaw/pen/XbxvNj</metadata>
<path stroke="#000000" d="M0 0h8M0 1h1M2 1h1M5 1h1M7 1h1M0 2h1M2 2h4M7 2h1M0 3h1M7 3h1M0 4h2M6 4h2M0 5h1M2 5h4M7 5h1M0 6h1M7 6h1M0 7h8" />
<path stroke="#6e563c" d="M1 1h1M6 1h1M1 6h1M6 6h1" />
<path stroke="#d0d0b8" d="M3 1h2M1 3h1M6 3h1" />
<path stroke="#b1b19a" d="M1 2h1M6 2h1M2 3h4M2 4h4" />
<path stroke="#816649" d="M1 5h1M6 5h1" />
<path stroke="#5a4630" d="M2 6h4" />
</svg>