<svg xmlns="http://www.w3.org/2000/svg" viewBox="0 -0.5 9 8" shape-rendering="crispEdges">
<metadata>Made with Pixels to Svg https://codepen.io/shshaw/pen/XbxvNj</metadata>
<path stroke="#050504" d="M2 0h5M1 1h1M7 1h1M0 2h1M2 2h2M5 2h2M8 2h1M0 3h1M2 3h2M5 3h2M8 3h1M0 4h1M8 4h1M0 5h2M7 5h2M1 6h1M3 6h1M5 6h1M7 6h1M2 7h1M4 7h1M6 7h1" />
<path stroke="#cbcbcb" d="M2 1h5M1 2h1M4 2h1M7 2h1M1 3h1M4 3h1M7 3h1" />
<path stroke="#a8a6a6" d="M1 4h3M5 4h3M3 5h3" />
<path stroke="#565555" d="M4 4h1" />
<path stroke="#6e6d6d" d="M2 5h1M6 5h1M2 6h1M4 6h1M6 6h1" />
</svg>