<svg xmlns="http://www.w3.org/2000/svg" viewBox="0 -0.5 9 8" shape-rendering="crispEdges">
<metadata>Made with Pixels to Svg https://codepen.io/shshaw/pen/XbxvNj</metadata>
<path stroke="#080900" d="M3 0h1M5 0h1M2 1h1M4 1h1M6 1h1M1 2h1M5 2h1M7 2h1M2 3h1M4 3h2M7 3h1M1 4h1M3 4h2M7 4h1M2 5h1M6 5h1M3 6h3" />
<path stroke="#f85858" d="M3 1h1M2 2h1" />
<path stroke="#e92828" d="M5 1h1M3 2h1M6 2h1M2 4h1M5 4h1M3 5h1" />
<path stroke="#d40001" d="M4 2h1M3 3h1M6 3h1M4 5h1" />
<path stroke="#9f0000" d="M6 4h1M5 5h1" />
</svg>