<svg xmlns="http://www.w3.org/2000/svg" viewBox="0 -0.5 9 8" shape-rendering="crispEdges">
<metadata>Made with Pixels to Svg https://codepen.io/shshaw/pen/XbxvNj</metadata>
<path stroke="#000000" d="M1 0h6M0 1h1M6 1h2M0 2h1M7 2h1M0 3h1M7 3h1M0 4h1M7 4h1M0 5h1M7 5h1M0 6h2M7 6h1M1 7h6" />
<path stroke="#d40001" d="M1 1h1M2 2h5M2 3h3M6 3h1M2 4h5M2 5h1M4 5h3M2 6h5" />
<path stroke="#f85858" d="M2 1h4" />
<path stroke="#9f0000" d="M1 2h1M1 3h1M1 4h1M1 5h1" />
<path stroke="#080900" d="M5 3h1M3 5h1" />
</svg>