<svg xmlns="http://www.w3.org/2000/svg" viewBox="0 -0.5 18 16" shape-rendering="crispEdges">
<metadata>Made with Pixels to Svg https://codepen.io/shshaw/pen/XbxvNj</metadata>
<path stroke="#1f0000" d="M0 0h18M0 1h3M15 1h3M0 2h1M2 2h2M14 2h2M17 2h1M0 3h1M3 3h2M13 3h2M17 3h1M0 4h1M4 4h1M12 4h2M17 4h1M0 5h1M5 5h2M11 5h2M17 5h1M0 6h1M6 6h2M10 6h2M17 6h1M0 7h1M7 7h4M17 7h1M0 8h1M7 8h4M17 8h1M0 9h1M6 9h2M10 9h2M17 9h1M0 10h1M5 10h2M11 10h2M17 10h1M0 11h1M4 11h2M12 11h2M17 11h1M0 12h1M3 12h2M13 12h2M17 12h1M0 13h1M2 13h2M14 13h2M17 13h1M0 14h3M15 14h3M0 15h18" />
<path stroke="#372d2d" d="M3 1h12M1 2h1M16 2h1M1 3h2M15 3h1M1 4h1M3 4h1M14 4h1M1 5h1M4 5h1M13 5h1M1 6h1M5 6h1M12 6h1M1 7h1M6 7h1M11 7h1M1 8h1M1 9h1M8 9h2M1 10h1M7 10h1M10 10h1M1 11h1M6 11h1M11 11h1M1 12h1M5 12h1M12 12h1M1 13h1M4 13h1M13 13h1M3 14h1M14 14h1" />
<path stroke="#534949" d="M4 2h10M5 3h8M16 3h1M2 4h1M6 4h6M15 4h2M2 5h2M7 5h4M14 5h3M2 6h3M8 6h2M13 6h4M2 7h4M12 7h5M2 8h5M11 8h6M2 9h4M12 9h5M2 10h3M8 10h2M13 10h4M2 11h2M7 11h4M14 11h3M2 12h1M6 12h6M15 12h2M5 13h8M16 13h1M4 14h10" />
<path stroke="#230505" d="M5 4h1" />
</svg>