<svg xmlns="http://www.w3.org/2000/svg" viewBox="0 -0.5 9 8" shape-rendering="crispEdges">
<metadata>Made with Pixels to Svg https://codepen.io/shshaw/pen/XbxvNj</metadata>
<path stroke="#050504" d="M1 0h6M0 1h1M7 1h1M0 2h1M7 2h1M0 3h1M7 3h1M0 4h1M7 4h1M0 5h1M7 5h1M0 6h1M6 6h1M1 7h5" />
<path stroke="#513424" d="M1 1h1M1 2h1M1 3h1M1 4h1M1 5h1M1 6h1" />
<path stroke="#a26143" d="M2 1h4M4 2h1M3 4h1M2 6h4" />
<path stroke="#ac7c00" d="M6 1h1M6 4h1" />
<path stroke="#ffffff" d="M2 2h2M5 2h1M2 4h1M4 4h2" />
<path stroke="#cdbfbf" d="M6 2h1M6 3h1M6 5h1" />
<path stroke="#643f00" d="M2 3h4M2 5h4" />
</svg>