<svg xmlns="http://www.w3.org/2000/svg" viewBox="0 -0.5 9 9" shape-rendering="crispEdges">
<metadata>Made with Pixels to Svg https://codepen.io/shshaw/pen/XbxvNj</metadata>
<path stroke="#000000" d="M1 0h2M6 0h2M1 1h1M3 1h3M7 1h1M1 2h1M7 2h1M1 3h1M3 3h3M7 3h1M1 4h1M7 4h1M1 5h1M3 5h3M7 5h1M1 6h1M7 6h1M1 7h1M3 7h3M7 7h1M1 8h2M6 8h2" />
<path stroke="#686060" d="M2 1h1M6 1h1M2 3h1M6 3h1M2 5h1M6 5h1" />
<path stroke="#7a5830" d="M2 2h1M6 2h1M2 4h1M6 4h1M2 6h1M6 6h1" />
<path stroke="#a57842" d="M3 2h3M3 4h3M3 6h3" />
<path stroke="#3f3b3b" d="M2 7h1M6 7h1" />
</svg>