<svg xmlns="http://www.w3.org/2000/svg" viewBox="0 -0.5 9 8" shape-rendering="crispEdges">
<metadata>Made with Pixels to Svg https://codepen.io/shshaw/pen/XbxvNj</metadata>
<path stroke="#000000" d="M1 0h7M1 1h1M7 1h1M1 2h1M7 2h1M1 3h1M7 3h1M1 4h1M7 4h1M1 5h1M7 5h1M1 6h1M7 6h1M1 7h7" />
<path stroke="#664a28" d="M2 1h5M2 2h1M2 3h1M2 4h1M2 5h1M2 6h1" />
<path stroke="#7b89a0" d="M3 2h1M5 3h1" />
<path stroke="#ffffff" d="M4 2h1M3 3h1" />
<path stroke="#ddeaff" d="M5 2h1M4 3h1M3 4h1M5 4h1M4 5h1" />
<path stroke="#a57842" d="M6 2h1M6 3h1M6 4h1M6 5h1M3 6h4" />
<path stroke="#3d495b" d="M4 4h1M3 5h1M5 5h1" />
</svg>