<svg xmlns="http://www.w3.org/2000/svg" viewBox="0 -0.5 9 8" shape-rendering="crispEdges">
<metadata>Made with Pixels to Svg https://codepen.io/shshaw/pen/XbxvNj</metadata>
<path stroke="#050504" d="M3 0h3M2 1h1M6 1h1M1 2h1M7 2h1M1 3h1M7 3h1M1 4h1M7 4h1M2 5h1M6 5h1M1 6h1M7 6h1M2 7h5" />
<path stroke="#7b89a0" d="M3 1h2M2 2h1M4 2h2M2 3h4M3 4h2" />
<path stroke="#5c5a71" d="M5 1h1M6 2h1M6 3h1M2 4h1M5 4h2M3 5h3" />
<path stroke="#ddeaff" d="M3 2h1" />
<path stroke="#5a4630" d="M2 6h1M5 6h2" />
<path stroke="#816649" d="M3 6h2" />
</svg>