<svg xmlns="http://www.w3.org/2000/svg" viewBox="0 -0.5 9 8" shape-rendering="crispEdges">
<metadata>Made with Pixels to Svg https://codepen.io/shshaw/pen/XbxvNj</metadata>
<path stroke="#050504" d="M2 0h1M4 0h1M6 0h1M1 1h1M3 1h1M5 1h1M7 1h1M1 2h1M3 2h1M5 2h1M7 2h1M2 3h1M4 3h1M6 3h1M2 4h1M4 4h1M6 4h1M1 5h1M3 5h1M5 5h1M7 5h1M1 6h1M3 6h1M5 6h1M7 6h1" />
<path stroke="#ffffff" d="M2 1h1M4 1h1M6 1h1" />
<path stroke="#cd2200" d="M2 2h1M4 2h1M6 2h1" />
<path stroke="#a8a6a6" d="M3 3h1M5 3h1M2 5h1M4 5h1M6 5h1" />
<path stroke="#9f0000" d="M3 4h1M5 4h1M2 6h1M4 6h1M6 6h1" />
</svg>