<svg xmlns="http://www.w3.org/2000/svg" viewBox="0 -0.5 9 8" shape-rendering="crispEdges">
<metadata>Made with Pixels to Svg https://codepen.io/shshaw/pen/XbxvNj</metadata>
<path stroke="#050504" d="M3 0h3M2 1h1M6 1h1M1 2h1M7 2h1M1 3h1M7 3h1M1 4h1M7 4h1M1 5h1M7 5h1M2 6h1M6 6h1M3 7h3" />
<path stroke="#fedf90" d="M3 1h1M2 2h1M2 3h1M2 4h1M2 5h1M3 6h1" />
<path stroke="#503000" d="M4 1h1M3 2h3M3 3h1M3 4h1M3 5h3M4 6h1" />
<path stroke="#ac7c00" d="M5 1h1M6 2h1M6 3h1M6 4h1M6 5h1M5 6h1" />
<path stroke="#f5bd2f" d="M4 3h2M4 4h2" />
</svg>