<svg xmlns="http://www.w3.org/2000/svg" viewBox="0 -0.5 18 16" shape-rendering="crispEdges">
<metadata>Made with Pixels to Svg https://codepen.io/shshaw/pen/XbxvNj</metadata>
<path stroke="#000000" d="M0 0h18M0 1h2M16 1h2M0 2h1M17 2h1M0 3h1M17 3h1M0 4h1M17 4h1M0 5h1M17 5h1M0 6h1M17 6h1M0 7h1M17 7h1M0 8h1M17 8h1M0 9h1M17 9h1M0 10h1M17 10h1M0 11h1M17 11h1M0 12h1M17 12h1M0 13h1M17 13h1M0 14h2M16 14h2M0 15h18" />
<path stroke="#404040" d="M2 1h14M1 2h2M16 2h1M1 3h1M1 4h1M7 4h1M14 4h1M1 5h1M7 5h1M1 6h1M5 6h3M12 6h3M1 7h1M1 8h1M10 8h1M1 9h1M9 9h2M1 10h1M1 11h1M7 11h1M13 11h2M1 12h1M7 12h1M12 12h1M1 13h1M5 13h1M7 13h1M12 13h1M14 13h1M2 14h1" />
<path stroke="#646464" d="M3 2h13M2 3h2M5 3h1M7 3h4M12 3h1M14 3h3M2 4h3M8 4h3M13 4h1M15 4h2M2 5h2M8 5h3M14 5h3M2 6h3M8 6h4M15 6h2M2 7h6M10 7h7M2 8h6M11 8h6M2 9h7M11 9h6M2 10h2M7 10h4M14 10h3M2 11h3M8 11h3M15 11h2M2 12h2M5 12h1M8 12h3M14 12h3M2 13h3M6 13h1M8 13h4M13 13h1M15 13h2M3 14h13" />
<path stroke="#010101" d="M4 3h1M6 3h1M11 3h1M13 3h1M5 4h2M11 4h2M4 5h3M11 5h3M8 7h2M8 8h2M4 10h3M11 10h3M5 11h2M11 11h2M4 12h1M6 12h1M11 12h1M13 12h1" />
</svg>