<svg xmlns="http://www.w3.org/2000/svg" viewBox="0 -0.5 18 16" shape-rendering="crispEdges">
<metadata>Made with Pixels to Svg https://codepen.io/shshaw/pen/XbxvNj</metadata>
<path stroke="#000000" d="M0 0h18M0 1h2M16 1h2M0 2h1M17 2h1M0 3h1M17 3h1M0 4h1M17 4h1M0 5h1M17 5h1M0 6h1M17 6h1M0 7h1M17 7h1M0 8h1M17 8h1M0 9h1M17 9h1M0 10h1M17 10h1M0 11h1M17 11h1M0 12h1M17 12h1M0 13h1M17 13h1M0 14h2M16 14h2M0 15h18" />
<path stroke="#1d1d1c" d="M2 1h14M1 2h2M16 2h1M1 3h1M1 4h1M1 5h1M1 6h1M1 7h1M1 8h1M1 9h1M1 10h1M1 11h1M1 12h1M1 13h1M2 14h1" />
<path stroke="#2a2923" d="M3 2h13M2 3h15M2 4h15M2 5h15M2 6h15M2 7h15M2 8h15M2 9h15M2 10h15M2 11h15M2 12h15M2 13h15M3 14h13" />
</svg>