<svg xmlns="http://www.w3.org/2000/svg" viewBox="0 -0.5 9 8" shape-rendering="crispEdges">
<metadata>Made with Pixels to Svg https://codepen.io/shshaw/pen/XbxvNj</metadata>
<path stroke="#000000" d="M1 0h6M0 1h1M7 1h1M0 2h1M7 2h1M0 3h1M7 3h1M0 4h1M7 4h1M0 5h1M7 5h1M0 6h8" />
<path stroke="#643f00" d="M1 1h1M2 2h4M2 5h1M4 5h3" />
<path stroke="#83570b" d="M2 1h5M6 2h1" />
<path stroke="#4d3203" d="M1 2h1M1 4h2M4 4h3M1 5h1M3 5h1" />
<path stroke="#b1b428" d="M1 3h1M3 4h1" />
<path stroke="#eae626" d="M2 3h5" />
</svg>